<?xml version="1.0" encoding="UTF-8"?>
<svg width="484" height="537" version="1.1" viewBox="0 0 484 537" xmlns="http://www.w3.org/2000/svg" xmlns:cc="http://creativecommons.org/ns#" xmlns:dc="http://purl.org/dc/elements/1.1/" xmlns:rdf="http://www.w3.org/1999/02/22-rdf-syntax-ns#">
	<circle cx="280" cy="45" r="45" stroke="#b81415" fill="#b81415" />
	<path d="M 0 228 C 7 205 21 184 39 169 C 56 154 78 145 100 140 C 115 136 131 135 146 134 C 166 134 185 135 204 135 C 226 136 247 137 268 139 C 290 140 311 141 332 139 C 347 138 363 135 378 130 C 398 124 418 116 436 105 C 455 91 472 73 483 52 C 475 105 448 155 408 190 C 394 202 378 213 361 222 C 412 253 451 305 466 363 C 471 380 473 397 474 414 C 451 380 419 352 382 334 C 363 325 343 318 322 318 C 301 318 281 324 264 336 C 246 348 232 365 221 383 C 215 394 210 406 204 417 C 177 468 130 510 74 527 C 54 533 33 536 11 536 C 48 523 81 501 105 471 C 126 445 141 415 150 383 C 159 352 163 319 160 287 C 158 266 153 245 142 227 C 136 216 127 207 116 201 C 104 194 89 192 75 193 C 64 194 53 198 42 203 C 27 209 13 218 0 228" stroke="#b81415" fill="#b81415" />
</svg>
